<svg width="176" height="176" viewBox="0 0 176 176" fill="none" xmlns="http://www.w3.org/2000/svg">
<path fill-rule="evenodd" clip-rule="evenodd" d="M88 0C39.3976 0 0 39.3976 0 88C0 136.602 39.3976 176 88 176C136.602 176 176 136.602 176 88C176 39.3976 136.602 0 88 0ZM57.2 66C57.2 61.9553 57.9967 57.9502 59.5445 54.2134C61.0924 50.4765 63.3611 47.0812 66.2211 44.2211C69.0812 41.3611 72.4765 39.0924 76.2134 37.5445C79.9502 35.9967 83.9553 35.2 88 35.2C92.0447 35.2 96.0498 35.9967 99.7867 37.5445C103.523 39.0924 106.919 41.3611 109.779 44.2211C112.639 47.0812 114.908 50.4765 116.455 54.2134C118.003 57.9502 118.8 61.9553 118.8 66C118.8 74.1687 115.555 82.0028 109.779 87.7789C104.003 93.555 96.1687 96.8 88 96.8C79.8313 96.8 71.9972 93.555 66.2211 87.7789C60.445 82.0028 57.2 74.1687 57.2 66ZM143.07 131.859C136.483 140.145 128.109 146.836 118.573 151.432C109.037 156.028 98.5856 158.41 88 158.4C77.4144 158.41 66.9633 156.028 57.4273 151.432C47.8913 146.836 39.517 140.145 32.9296 131.859C47.1944 121.625 66.66 114.4 88 114.4C109.34 114.4 128.806 121.625 143.07 131.859Z" fill="#8B8F92"/>
</svg>
