<svg width="548" height="40" viewBox="0 0 548 40" fill="none" xmlns="http://www.w3.org/2000/svg">
<g clip-path="url(#clip0_185_12848)">
<path d="M64.8801 -64.88L-64.8799 64.88" stroke="#398044" stroke-opacity="0.35" stroke-width="8" stroke-miterlimit="10"/>
<path d="M88.8801 -64.15L-40.8799 65.6" stroke="#398044" stroke-opacity="0.35" stroke-width="8" stroke-miterlimit="10"/>
<path d="M112.88 -63.42L-16.8799 66.33" stroke="#398044" stroke-opacity="0.35" stroke-width="8" stroke-miterlimit="10"/>
<path d="M136.88 -62.7L7.12012 67.06" stroke="#398044" stroke-opacity="0.35" stroke-width="8" stroke-miterlimit="10"/>
<path d="M160.88 -61.97L31.1201 67.79" stroke="#398044" stroke-opacity="0.35" stroke-width="8" stroke-miterlimit="10"/>
<path d="M184.88 -61.24L55.1201 68.51" stroke="#398044" stroke-opacity="0.35" stroke-width="8" stroke-miterlimit="10"/>
<path d="M208.88 -60.51L79.1201 69.24" stroke="#398044" stroke-opacity="0.35" stroke-width="8" stroke-miterlimit="10"/>
<path d="M232.88 -59.79L103.12 69.97" stroke="#398044" stroke-opacity="0.35" stroke-width="8" stroke-miterlimit="10"/>
<path d="M256.88 -59.06L127.12 70.7" stroke="#398044" stroke-opacity="0.35" stroke-width="8" stroke-miterlimit="10"/>
<path d="M280.88 -58.33L151.12 71.42" stroke="#398044" stroke-opacity="0.35" stroke-width="8" stroke-miterlimit="10"/>
<path d="M304.88 -57.6L175.12 72.15" stroke="#398044" stroke-opacity="0.35" stroke-width="8" stroke-miterlimit="10"/>
<path d="M328.88 -56.88L199.12 72.88" stroke="#398044" stroke-opacity="0.35" stroke-width="8" stroke-miterlimit="10"/>
<path d="M352.88 -56.15L223.12 73.6" stroke="#398044" stroke-opacity="0.35" stroke-width="8" stroke-miterlimit="10"/>
<path d="M376.88 -55.42L247.12 74.33" stroke="#398044" stroke-opacity="0.35" stroke-width="8" stroke-miterlimit="10"/>
<path d="M400.88 -54.7L271.12 75.06" stroke="#398044" stroke-opacity="0.35" stroke-width="8" stroke-miterlimit="10"/>
<path d="M424.88 -53.97L295.12 75.79" stroke="#398044" stroke-opacity="0.35" stroke-width="8" stroke-miterlimit="10"/>
<path d="M448.88 -53.24L319.12 76.51" stroke="#398044" stroke-opacity="0.35" stroke-width="8" stroke-miterlimit="10"/>
<path d="M472.88 -52.51L343.12 77.24" stroke="#398044" stroke-opacity="0.35" stroke-width="8" stroke-miterlimit="10"/>
<path d="M496.88 -51.79L367.12 77.97" stroke="#398044" stroke-opacity="0.35" stroke-width="8" stroke-miterlimit="10"/>
<path d="M520.88 -51.06L391.12 78.7" stroke="#398044" stroke-opacity="0.35" stroke-width="8" stroke-miterlimit="10"/>
<path d="M544.88 -50.33L415.12 79.42" stroke="#398044" stroke-opacity="0.35" stroke-width="8" stroke-miterlimit="10"/>
<path d="M568.88 -49.6L439.12 80.15" stroke="#398044" stroke-opacity="0.35" stroke-width="8" stroke-miterlimit="10"/>
<path d="M592.88 -48.88L463.12 80.88" stroke="#398044" stroke-opacity="0.35" stroke-width="8" stroke-miterlimit="10"/>
<path d="M616.88 -48.15L487.12 81.6" stroke="#398044" stroke-opacity="0.35" stroke-width="8" stroke-miterlimit="10"/>
<path d="M640.88 -47.42L511.12 82.33" stroke="#398044" stroke-opacity="0.35" stroke-width="8" stroke-miterlimit="10"/>
<path d="M664.88 -46.7L535.12 83.06" stroke="#398044" stroke-opacity="0.35" stroke-width="8" stroke-miterlimit="10"/>
</g>
<defs>
<clipPath id="clip0_185_12848">
<rect width="1320" height="40" fill="white"/>
</clipPath>
</defs>
</svg>
