<svg width="106" height="41" viewBox="0 0 106 41" fill="none" xmlns="http://www.w3.org/2000/svg">
<path d="M30 0.144043L40 5.14404V15.144L30 10.144V0.144043Z" fill="#E7EEF4"/>
<path d="M40 20.144L30 15.144V35.144L40 40.144V20.144Z" fill="#E7EEF4"/>
<path d="M20 10.144L30 15.144L10 25.144L0 20.144L20 10.144Z" fill="#72FF88"/>
<path d="M57.656 15.464L59.216 15.752L60.776 15.464V29.144H57.656V15.464ZM59.216 13.76C58.624 13.76 58.136 13.6 57.752 13.28C57.368 12.944 57.176 12.512 57.176 11.984C57.176 11.456 57.368 11.032 57.752 10.712C58.136 10.376 58.624 10.208 59.216 10.208C59.824 10.208 60.312 10.376 60.68 10.712C61.064 11.032 61.256 11.456 61.256 11.984C61.256 12.512 61.064 12.944 60.68 13.28C60.312 13.6 59.824 13.76 59.216 13.76ZM73.9659 11.144C75.3099 11.144 76.4699 11.384 77.4459 11.864C78.4379 12.344 79.1979 13.016 79.7259 13.88C80.2699 14.728 80.5419 15.712 80.5419 16.832C80.5419 17.952 80.2699 18.944 79.7259 19.808C79.1979 20.656 78.4379 21.32 77.4459 21.8C76.4699 22.28 75.3099 22.52 73.9659 22.52H65.8779V19.784H73.8459C74.9339 19.784 75.7819 19.52 76.3899 18.992C77.0139 18.464 77.3259 17.744 77.3259 16.832C77.3259 15.92 77.0139 15.2 76.3899 14.672C75.7819 14.144 74.9339 13.88 73.8459 13.88H66.1899L67.6059 12.296V29.144H64.4379V11.144H73.9659ZM84.677 19.016H97.613V21.8H84.677V19.016ZM97.997 11.144V13.928H84.581L86.309 12.128V29.144H83.141V11.144H97.997ZM100.547 15.464L102.107 15.752L103.667 15.464V29.144H100.547V15.464ZM102.107 13.76C101.515 13.76 101.027 13.6 100.643 13.28C100.259 12.944 100.067 12.512 100.067 11.984C100.067 11.456 100.259 11.032 100.643 10.712C101.027 10.376 101.515 10.208 102.107 10.208C102.715 10.208 103.203 10.376 103.571 10.712C103.955 11.032 104.147 11.456 104.147 11.984C104.147 12.512 103.955 12.944 103.571 13.28C103.203 13.6 102.715 13.76 102.107 13.76Z" fill="#72FF88"/>
</svg>
