<svg width="120" height="18" viewBox="0 0 120 18" fill="none" xmlns="http://www.w3.org/2000/svg">
<path fill-rule="evenodd" clip-rule="evenodd" d="M14.311 4.12501V2.72305L13.104 3.43627L5.31102 8.04123V4.12501V3.32501H3.71102V4.12501V8.98669L3.68848 9.00001L3.71102 9.01333V13.875V14.675H5.31102V13.875V9.95879L13.104 14.5638L14.311 15.277V13.875V4.12501ZM12.711 12.4731L6.83357 9.00001L12.711 5.52697V12.4731Z" fill="#67E67A"/>
<path fill-rule="evenodd" clip-rule="evenodd" d="M36.1973 0.837036L37.4089 1.56399L48.6589 8.31399L49.8022 8.99999L48.6589 9.68598L37.4089 16.436L36.1973 17.1629V15.75V2.24999V0.837036ZM37.7973 3.66294V14.337L46.6923 8.99999L37.7973 3.66294Z" fill="#67E67A"/>
<path fill-rule="evenodd" clip-rule="evenodd" d="M72.8955 3.43627L71.6885 2.72305V4.12501V13.875V15.277L72.8955 14.5638L80.6885 9.95879V13.875V14.675H82.2885V13.875V9.01333L82.311 9.00001L82.2885 8.98669V4.12501V3.32501H80.6885V4.12501V8.04123L72.8955 3.43627ZM79.1659 9.00001L73.2885 12.4731V5.52697L79.1659 9.00001Z" fill="#67E67A"/>
<path fill-rule="evenodd" clip-rule="evenodd" d="M112.551 3.75001V2.08551L111.251 3.12531L107.721 5.95001H104.251H103.451V6.75001V11.25V12.05H104.251H107.721L111.251 14.8747L112.551 15.9145V14.25V3.75001ZM108.501 7.37471L110.951 5.41451V12.5855L108.501 10.6253L108.282 10.45H108.001H105.051V7.55001H108.001H108.282L108.501 7.37471ZM116.067 3.18432L115.501 2.61864L114.37 3.75001L114.935 4.3157C117.628 7.00786 117.613 11.0064 114.935 13.6843L114.37 14.25L115.501 15.3814L116.067 14.8157C119.367 11.5153 119.386 6.50368 116.067 3.18432ZM114.567 5.43432L114.001 4.86864L112.87 6.00001L113.435 6.5657C114.687 7.81765 114.687 10.1824 113.435 11.4343L112.87 12L114.001 13.1314L114.567 12.5657C116.444 10.6889 116.444 7.31111 114.567 5.43432Z" fill="#67E67A"/>
</svg>
