<svg xmlns="http://www.w3.org/2000/svg" width="166" height="982" viewBox="0 0 166 982" fill="none">
  <path
    d="M15.1362 982C9.99263 935.238 4.84994 888.477 8.67107 841.715C12.4913 794.952 25.2771 748.19 30.223 701.429C35.168 654.667 32.274 607.904 25.9126 561.144C19.5504 514.381 9.72001 467.619 4.36068 420.856C-0.999556 374.096 -1.89052 327.333 4.36068 280.571C10.611 233.81 24.0034 187.048 25.9126 140.285C27.821 93.5231 18.246 46.7624 8.67107 0H166C166 46.7624 166 93.5231 166 140.285C166 187.048 166 233.81 166 280.571C166 327.333 166 374.096 166 420.856C166 467.619 166 514.381 166 561.144C166 607.904 166 654.667 166 701.429C166 748.19 166 794.952 166 841.715C166 888.477 166 935.238 166 982H15.1362Z"
    fill="#1A1B46" />
</svg>
