<svg width="32" height="32" viewBox="0 0 32 32" fill="none" xmlns="http://www.w3.org/2000/svg">
<path fill-rule="evenodd" clip-rule="evenodd" d="M13.0372 28.0001H18.9625C23.1238 28.0001 25.2052 28.0001 26.6998 27.0201C27.3448 26.5974 27.9002 26.0519 28.3345 25.4147C29.3332 23.9481 29.3332 21.9041 29.3332 17.8187C29.3332 13.7321 29.3332 11.6894 28.3345 10.2227C27.9002 9.58554 27.3448 9.04006 26.6998 8.6174C25.7398 7.98673 24.5372 7.7614 22.6958 7.6814C21.8172 7.6814 21.0612 7.02806 20.8892 6.1814C20.7577 5.56122 20.4162 5.00544 19.9223 4.608C19.4284 4.21055 18.8124 3.99581 18.1785 4.00006H13.8212C12.5038 4.00006 11.3692 4.9134 11.1105 6.1814C10.9385 7.02806 10.1825 7.6814 9.30384 7.6814C7.46384 7.7614 6.26117 7.98806 5.29984 8.6174C4.65533 9.04015 4.10034 9.58563 3.6665 10.2227C2.6665 11.6894 2.6665 13.7321 2.6665 17.8187C2.6665 21.9041 2.6665 23.9467 3.66517 25.4147C4.09717 26.0494 4.65184 26.5947 5.29984 27.0201C6.7945 28.0001 8.87584 28.0001 13.0372 28.0001ZM15.9998 12.3641C12.9318 12.3641 10.4438 14.8054 10.4438 17.8174C10.4438 20.8307 12.9318 23.2721 15.9998 23.2721C19.0678 23.2721 21.5558 20.8307 21.5558 17.8187C21.5558 14.8054 19.0678 12.3641 15.9998 12.3641ZM15.9998 14.5454C14.1598 14.5454 12.6665 16.0107 12.6665 17.8187C12.6665 19.6254 14.1598 21.0907 15.9998 21.0907C17.8398 21.0907 19.3332 19.6254 19.3332 17.8187C19.3332 16.0107 17.8398 14.5454 15.9998 14.5454ZM22.2958 13.4547C22.2958 12.8521 22.7932 12.3641 23.4078 12.3641H24.8878C25.5012 12.3641 25.9998 12.8521 25.9998 13.4547C25.997 13.7466 25.8785 14.0254 25.6702 14.2299C25.462 14.4344 25.181 14.5479 24.8892 14.5454H23.4078C23.2632 14.5468 23.1197 14.5197 22.9856 14.4657C22.8514 14.4116 22.7292 14.3317 22.6259 14.2304C22.5227 14.1291 22.4404 14.0085 22.3837 13.8754C22.3271 13.7423 22.2972 13.5994 22.2958 13.4547Z" fill="#808198"/>
</svg>
