<svg width="70" height="18" viewBox="0 0 70 18" fill="none" xmlns="http://www.w3.org/2000/svg">
<path d="M3.75 8.25H14.25V9.75H3.75V8.25Z" fill="#01022C"/>
<path fillRule="evenodd" clipRule="evenodd" d="M37.2246 1.47501H37.9746H41.7246H42.4746V2.22501V5.97501V6.72501H40.9746V5.97501V2.97501H37.9746H37.2246V1.47501ZM42.5246 11.975V11.175H40.9246V11.975V14.925H37.9746H37.1746V16.525H37.9746H41.7246H42.5246V15.725V11.975ZM28.9746 11.975V11.225H27.4746V11.975V15.725V16.475H28.2246H31.9746H32.7246V14.975H31.9746H28.9746V11.975ZM28.2246 1.47501H27.4746V2.22501V5.97501V6.72501H28.9746V5.97501V2.97501H31.9746H32.7246V1.47501H31.9746H28.2246Z" fill="#01022C"/>
<path fillRule="evenodd" clipRule="evenodd" d="M57.062 3.93112L57.6277 4.49681L60.9995 7.86862L64.3713 4.49681L64.937 3.93112L66.0684 5.06249L65.5027 5.62818L62.1309 8.99999L65.5027 12.3718L66.0684 12.9375L64.937 14.0689L64.3713 13.5032L60.9995 10.1314L57.6277 13.5032L57.062 14.0689L55.9307 12.9375L56.4963 12.3718L59.8682 8.99999L56.4963 5.62818L55.9307 5.06249L57.062 3.93112Z" fill="#01022C"/>
</svg>
